<?xml version="1.0" standalone="no"?>
<!DOCTYPE svg PUBLIC "-//W3C//DTD SVG 20010904//EN"
 "http://www.w3.org/TR/2001/REC-SVG-20010904/DTD/svg10.dtd">
<svg version="1.0" xmlns="http://www.w3.org/2000/svg"
 width="1056.000000pt" height="1056.000000pt" viewBox="0 0 1056.000000 1056.000000"
 preserveAspectRatio="xMidYMid meet">
<metadata>
Created by potrace 1.14, written by Peter Selinger 2001-2017
</metadata>
<g transform="translate(0.000000,1056.000000) scale(0.100000,-0.100000)"
fill="#000000" stroke="none">
<path d="M7940 10252 c0 -5 -14 -6 -31 -4 -22 3 -34 0 -41 -12 -5 -9 -15 -16
-22 -16 -7 0 -21 -9 -31 -20 -10 -11 -22 -17 -27 -14 -13 8 -68 -16 -68 -30 0
-6 -5 -4 -10 4 -5 8 -10 10 -10 4 0 -7 -15 -10 -40 -9 -24 2 -44 -2 -51 -11
-14 -18 -66 -31 -149 -40 -36 -3 -68 -8 -72 -11 -8 -4 -41 -9 -128 -17 -42 -5
-215 -13 -392 -20 -58 -2 -78 0 -78 9 0 10 -10 11 -37 5 -21 -5 -60 -11 -87
-15 -27 -3 -54 -9 -60 -13 -6 -4 -49 -8 -96 -8 -47 -1 -143 -5 -215 -9 -71 -4
-182 -8 -245 -10 -178 -6 -326 -14 -357 -19 -143 -23 -286 -23 -406 0 -16 3
-18 1 -9 -8 20 -20 14 -28 -19 -24 -16 2 -36 -2 -43 -9 -19 -19 -84 -27 -265
-32 -91 -2 -205 -5 -253 -7 -57 -1 -88 2 -88 8 0 8 -3 8 -8 1 -7 -11 -198 -14
-217 -4 -26 14 -325 -4 -325 -20 0 -5 -187 -9 -540 -10 -47 -1 -107 1 -135 3
-27 2 -54 0 -60 -4 -5 -4 -45 -7 -87 -6 -56 1 -79 -2 -83 -12 -7 -18 -65 -41
-92 -36 -13 3 -44 -2 -68 -11 -75 -25 -102 -27 -109 -8 -5 13 -9 14 -15 5 -8
-13 -176 -32 -201 -22 -42 15 -301 23 -335 10 -17 -6 -35 -5 -60 6 -20 8 -44
12 -54 9 -22 -7 -38 -59 -46 -150 -3 -38 -9 -88 -13 -110 -8 -46 -7 -342 1
-398 5 -37 31 -103 61 -156 12 -22 12 -26 -5 -40 -24 -20 -12 -40 24 -43 15
-1 27 -5 27 -9 0 -13 94 14 114 33 21 19 21 19 36 0 24 -30 51 -40 96 -36 95
9 154 8 157 0 4 -12 35 -16 132 -15 44 0 85 0 90 0 85 -6 505 3 505 11 0 4 -8
12 -17 17 -10 6 -13 11 -7 11 6 0 17 -7 24 -15 7 -9 19 -14 27 -11 8 3 11 1 8
-4 -9 -15 22 -17 96 -6 41 5 229 18 254 17 6 0 27 -2 48 -3 20 -2 37 0 37 5 0
5 12 0 28 -10 19 -14 35 -17 57 -12 17 4 26 8 20 9 -5 1 8 6 30 10 27 5 42 4
47 -4 6 -8 13 -8 28 2 24 15 57 16 65 2 8 -14 46 -2 63 19 12 15 13 14 8 -1
-3 -10 0 -19 7 -19 114 -13 508 -17 555 -7 18 4 31 4 28 0 -2 -4 60 -6 137 -6
78 1 142 3 142 4 0 1 16 4 35 7 19 2 38 9 41 15 7 11 49 -28 49 -46 1 -6 7 0
14 14 8 14 12 29 9 34 -3 5 6 7 20 4 17 -3 24 -1 20 5 -4 6 0 8 11 4 10 -4 24
-7 32 -7 9 0 13 -3 11 -7 -3 -5 12 -9 34 -9 21 -1 36 2 33 7 -3 5 -1 9 5 9 5
0 11 -4 13 -10 4 -11 88 9 105 25 6 7 34 15 62 19 28 4 51 11 51 17 0 6 4 8 9
5 8 -6 151 -11 161 -6 3 1 30 4 60 6 78 6 79 6 84 21 3 8 10 11 16 8 12 -7 14
-26 3 -23 -5 0 -19 -4 -33 -10 -38 -18 120 -7 195 14 33 8 69 17 80 20 44 9
62 13 105 24 25 6 63 13 84 16 22 3 48 10 58 15 10 5 18 8 18 5 0 -3 29 3 63
13 35 10 72 14 83 10 10 -4 55 -5 99 -3 44 2 142 5 217 7 76 1 138 5 138 9 0
4 11 3 24 -2 13 -5 27 -6 31 -2 4 4 70 8 148 9 78 1 162 3 187 6 54 5 71 0 63
-19 -3 -8 1 -15 8 -15 24 -2 54 3 59 10 8 10 30 12 30 2 0 -20 55 -6 65 17 5
12 13 22 17 22 4 0 18 12 32 27 26 27 29 29 107 38 47 6 52 7 128 25 24 6 46
8 49 5 3 -3 0 -5 -6 -5 -6 0 -17 -6 -24 -13 -7 -7 -24 -21 -38 -31 -30 -22
-25 -21 123 34 91 35 117 49 117 63 0 13 5 17 19 12 13 -4 26 3 43 22 13 15
42 37 63 48 22 11 42 22 45 26 3 3 26 18 51 32 25 15 56 38 69 52 l25 26 -21
37 c-11 20 -25 36 -32 35 -6 -2 -21 16 -33 40 -12 23 -25 44 -29 47 -5 4 -21
34 -25 50 -7 29 -98 169 -134 208 -12 12 -19 22 -16 22 3 0 -23 38 -57 84 -35
46 -72 97 -83 112 -41 58 -98 114 -116 114 -11 0 -19 -4 -19 -8z m-4603 -1328
c-3 -3 -12 -4 -19 -1 -8 3 -5 6 6 6 11 1 17 -2 13 -5z"/>
<path d="M5524 8345 c2 -7 -2 -16 -10 -19 -8 -3 -17 1 -20 9 -8 20 -30 19 -38
-1 -3 -8 -10 -13 -14 -10 -5 3 -19 -5 -31 -18 -17 -18 -31 -23 -62 -21 -21 2
-41 -1 -44 -6 -3 -4 -12 -6 -20 -2 -10 3 -15 -1 -15 -12 0 -12 6 -15 23 -10
16 4 14 1 -8 -11 -20 -12 -30 -13 -33 -5 -7 20 -27 12 -62 -24 -19 -20 -40
-33 -47 -31 -7 3 -19 -3 -25 -14 -7 -11 -19 -20 -26 -20 -7 0 -17 -12 -22 -26
-7 -17 -15 -24 -25 -20 -9 3 -15 0 -15 -9 0 -8 -4 -15 -10 -15 -5 0 -12 -10
-16 -22 -3 -13 -25 -39 -48 -58 -48 -39 -86 -98 -86 -131 0 -18 -3 -20 -12
-11 -9 9 -17 4 -33 -21 -22 -32 -29 -55 -41 -132 -7 -46 -11 -55 -25 -55 -6 0
-7 5 -3 12 4 7 3 8 -5 4 -6 -4 -9 -11 -6 -16 3 -5 1 -11 -3 -14 -5 -3 -7 -28
-4 -55 3 -38 0 -54 -12 -66 -9 -9 -16 -24 -16 -33 0 -14 2 -14 9 -3 6 9 9 1 9
-25 0 -21 -4 -41 -8 -44 -17 -10 -25 -79 -20 -172 3 -46 7 -59 22 -64 22 -7
23 -32 2 -63 -16 -22 -16 -24 0 -33 10 -5 16 -19 15 -31 -2 -36 0 -43 26 -81
13 -20 22 -36 19 -36 -7 0 35 -59 59 -83 10 -10 15 -21 13 -26 -3 -4 4 -18 15
-29 11 -12 17 -22 13 -22 -13 0 31 -42 59 -56 15 -8 26 -18 23 -22 -2 -4 2
-21 9 -37 8 -22 31 -41 72 -63 33 -17 66 -39 74 -48 23 -27 97 -74 118 -74 11
0 32 -12 46 -26 19 -19 30 -23 37 -16 8 8 17 7 32 -3 11 -8 34 -16 51 -19 16
-3 41 -10 55 -16 14 -5 51 -16 84 -25 51 -13 61 -13 79 0 14 10 24 11 33 4 13
-11 86 -15 101 -6 5 3 15 2 23 -3 8 -5 32 -1 62 11 26 10 48 15 48 11 0 -4 5
1 10 10 6 9 25 20 43 23 17 4 37 12 44 17 6 5 28 11 48 14 21 2 46 11 57 18
11 8 26 12 33 10 7 -3 16 0 20 5 3 6 11 9 16 5 5 -3 17 0 26 8 9 7 18 11 21 8
3 -3 6 3 8 13 2 14 -1 16 -11 7 -11 -9 -12 -7 -9 7 4 15 13 18 40 15 21 -3 34
0 34 7 0 7 4 10 9 6 5 -3 21 14 35 37 14 24 26 39 26 33 0 -5 8 1 18 15 9 14
24 26 32 28 22 4 60 53 60 77 0 11 8 28 18 37 47 46 58 63 108 173 16 33 32
63 36 66 5 3 9 23 10 45 0 21 8 53 17 69 11 19 16 52 16 90 -1 42 3 63 14 71
13 10 13 16 2 40 -10 22 -14 25 -22 13 -10 -16 -10 -17 -15 61 -1 25 -7 71
-12 102 -5 31 -5 62 -1 69 8 14 -9 60 -27 71 -7 5 -10 17 -7 28 3 11 0 20 -6
20 -6 0 -11 8 -11 18 0 10 -5 23 -12 30 -7 7 -8 12 -4 12 5 0 3 6 -3 14 -6 8
-11 18 -10 22 5 27 -3 54 -15 54 -8 0 -24 21 -36 47 -12 26 -31 54 -42 61 -10
8 -17 19 -15 25 3 11 -50 67 -64 67 -4 0 -10 -6 -12 -12 -5 -12 -11 25 -8 45
0 4 -6 7 -14 7 -8 0 -15 6 -15 13 0 13 -53 49 -67 45 -4 -1 -35 15 -68 37 -33
22 -66 41 -73 43 -22 4 -62 34 -62 45 0 6 -3 8 -6 4 -4 -3 -13 0 -20 8 -8 8
-21 12 -29 9 -8 -4 -15 -1 -15 5 0 16 -42 31 -57 19 -7 -5 -14 -5 -17 1 -4 6
-13 8 -22 4 -8 -3 -23 2 -33 11 -19 17 -65 14 -77 -5 -9 -16 -34 -10 -28 6 4
9 0 15 -7 16 -37 3 -85 -4 -96 -13 -9 -7 -17 -7 -27 2 -22 17 -99 22 -92 5z"/>
<path d="M3247 7981 c-10 -4 -18 -11 -17 -16 1 -5 -3 -11 -9 -13 -6 -2 -11 3
-11 11 0 7 -7 14 -15 14 -8 0 -15 -7 -15 -14 0 -8 -4 -12 -8 -9 -5 3 -19 -4
-31 -16 -16 -14 -38 -21 -70 -23 -61 -3 -63 -3 -56 -15 3 -5 13 -7 23 -4 14 5
14 3 -2 -10 -23 -18 -36 -20 -36 -6 0 20 -26 9 -50 -20 -14 -16 -33 -29 -43
-30 -10 0 -20 -7 -23 -15 -4 -8 -10 -13 -15 -10 -4 3 -15 -8 -24 -25 -9 -17
-20 -28 -24 -25 -10 6 -34 -19 -26 -27 3 -3 -16 -27 -43 -54 -60 -60 -86 -99
-76 -115 5 -9 2 -10 -9 -6 -10 4 -22 -3 -33 -21 -21 -31 -24 -41 -29 -101 -5
-52 -20 -73 -36 -51 -9 13 -10 12 -5 -2 3 -10 1 -18 -4 -18 -10 0 -5 -59 5
-69 3 -2 0 -11 -7 -18 -6 -8 -11 -37 -9 -64 1 -27 -2 -49 -7 -49 -11 0 -12 -7
-16 -102 -3 -65 0 -80 15 -94 23 -21 24 -38 3 -58 -15 -15 -11 -41 5 -32 4 3
7 -7 6 -22 -2 -22 27 -94 45 -112 15 -15 69 -99 80 -125 7 -16 27 -37 44 -45
22 -11 30 -21 28 -35 -3 -24 26 -53 79 -78 20 -9 42 -24 50 -33 23 -28 99 -75
110 -69 5 4 22 -6 36 -21 18 -19 28 -24 31 -16 2 8 8 10 15 3 7 -5 41 -17 77
-26 36 -9 70 -20 75 -24 21 -17 73 -20 91 -6 14 9 23 10 32 3 17 -15 131 -13
167 2 17 8 34 14 38 14 4 1 11 6 15 12 4 7 18 14 32 15 14 2 31 10 39 17 7 7
20 11 27 8 8 -3 14 -1 14 4 0 5 6 7 14 4 7 -3 20 2 29 10 23 23 33 19 12 -4
-10 -11 -14 -20 -8 -20 5 0 18 9 28 20 9 10 20 19 24 18 15 -3 61 15 61 24 0
5 -10 6 -22 2 -20 -6 -21 -5 -6 10 9 9 29 16 44 16 27 0 59 27 69 61 4 11 11
17 16 13 6 -3 13 3 16 15 3 12 13 21 24 21 20 0 49 36 49 60 0 8 14 31 31 50
39 45 110 185 116 229 2 18 10 46 18 62 9 16 12 40 9 57 -3 17 -1 32 5 36 5 4
8 13 4 22 -3 8 2 21 12 28 15 11 16 16 5 36 -9 18 -14 20 -21 9 -12 -21 -16
-10 -24 71 -4 41 -8 84 -9 95 -1 11 2 28 6 38 5 10 5 17 -2 17 -5 0 -10 7 -10
15 0 7 -6 18 -12 22 -7 4 -13 13 -13 18 -1 22 -46 150 -55 155 -6 4 -20 26
-33 51 -12 25 -28 43 -36 41 -8 -2 -11 3 -8 13 4 9 -4 25 -20 40 -21 19 -30
22 -41 13 -11 -10 -13 -8 -10 9 3 24 -55 87 -75 80 -7 -2 -32 11 -56 30 -24
18 -52 33 -63 33 -10 0 -21 7 -24 15 -4 8 -10 12 -15 9 -5 -3 -12 2 -15 10 -3
9 -12 16 -20 16 -8 0 -14 4 -14 10 0 5 -7 7 -15 3 -10 -3 -15 0 -13 8 2 10
-10 14 -43 15 -25 0 -56 8 -69 17 -22 15 -25 15 -52 -5 -16 -11 -32 -17 -36
-14 -3 4 0 11 8 16 12 8 11 10 -5 11 -11 0 -29 2 -40 4 -11 2 -32 -2 -47 -10
-22 -11 -29 -11 -38 0 -14 17 -41 23 -63 16z"/>
<path d="M7721 7848 c-13 -22 -33 -24 -25 -3 12 30 -16 18 -66 -27 -21 -19
-77 -31 -85 -18 -7 11 -45 1 -45 -12 0 -5 5 -6 10 -3 6 3 10 1 10 -5 0 -6 6
-8 13 -5 6 4 3 -1 -8 -10 -18 -14 -21 -14 -32 1 -11 15 -15 13 -45 -17 -18
-19 -37 -35 -43 -35 -5 -1 -16 -2 -22 -3 -7 0 -13 -8 -13 -17 0 -8 -4 -13 -10
-9 -5 3 -17 -9 -26 -26 -11 -22 -18 -28 -24 -20 -5 9 -9 8 -15 -6 -9 -21 -12
-29 -14 -43 0 -5 -7 -10 -13 -10 -20 -1 -103 -110 -101 -131 3 -21 -13 -26
-20 -6 -3 7 -9 0 -16 -15 -6 -16 -16 -28 -22 -28 -6 0 -9 -9 -6 -20 3 -11 2
-20 -2 -20 -3 0 -7 -20 -8 -45 -3 -54 -8 -66 -28 -58 -17 6 -19 -7 -15 -74 1
-25 -3 -43 -9 -43 -6 0 -7 -7 -4 -17 4 -11 3 -14 -5 -9 -7 4 -12 2 -12 -3 0
-6 4 -11 9 -11 16 0 18 -34 3 -53 -11 -12 -16 -44 -17 -102 -2 -71 0 -88 15
-98 21 -15 22 -48 1 -65 -15 -11 -15 -13 0 -22 10 -6 15 -18 12 -32 -3 -14 6
-38 20 -60 14 -20 24 -38 22 -40 -2 -2 12 -23 31 -47 18 -24 34 -50 34 -57 0
-8 5 -14 10 -14 6 0 10 -8 10 -18 0 -12 14 -25 39 -37 26 -11 38 -22 34 -31
-9 -24 26 -64 75 -87 26 -12 53 -30 60 -40 19 -25 91 -69 102 -62 5 3 20 -6
33 -21 15 -15 27 -22 31 -16 4 7 16 6 34 -4 15 -7 34 -14 42 -14 8 0 39 -9 68
-20 69 -26 109 -31 123 -14 9 11 14 11 31 0 13 -9 30 -11 54 -6 19 4 36 4 39
0 7 -11 35 -6 74 14 17 9 31 13 31 9 0 -4 6 1 13 10 6 9 21 18 32 20 11 2 27
6 35 10 8 3 24 8 35 13 11 4 25 8 30 8 6 1 21 7 35 14 23 12 24 12 6 -2 -11
-9 -16 -19 -13 -23 4 -3 19 4 33 18 14 13 27 23 30 22 9 -6 24 -3 22 5 -4 21
17 42 43 42 31 0 69 30 69 55 0 8 7 15 15 15 8 0 19 9 25 20 6 11 16 20 23 20
17 0 48 38 45 55 -2 7 15 35 37 60 22 26 39 49 38 51 -2 2 15 36 36 76 21 40
38 84 37 98 -1 14 5 39 15 55 10 19 16 47 14 78 -2 38 2 53 18 68 17 15 18 21
7 34 -7 9 -19 14 -27 11 -7 -3 -13 0 -14 7 0 7 -3 32 -5 57 -2 25 -6 76 -7
114 -2 52 -7 71 -21 81 -10 8 -15 18 -11 24 3 6 -1 21 -9 33 -9 12 -16 30 -16
39 0 10 -6 20 -12 22 -10 4 -10 6 -1 6 10 1 10 7 1 26 -6 14 -15 25 -20 25 -4
0 -8 7 -8 15 0 8 -4 15 -10 15 -5 0 -10 9 -10 20 0 11 -11 27 -25 36 -14 9
-23 20 -20 24 3 5 -8 23 -25 41 -16 19 -30 28 -30 21 0 -6 -4 -12 -10 -12 -5
0 -10 9 -10 20 0 11 -4 20 -10 20 -5 0 -10 6 -10 13 0 6 -32 27 -70 46 -39 18
-70 37 -70 42 0 5 -9 9 -19 9 -11 0 -26 7 -35 15 -8 8 -17 15 -21 15 -3 0 -16
9 -28 20 -12 11 -27 18 -34 16 -7 -3 -13 1 -13 9 0 11 -13 15 -47 15 -27 0
-56 7 -66 15 -21 15 -46 10 -65 -13 -9 -12 -15 -13 -24 -4 -9 9 -9 12 1 12 7
0 10 4 7 9 -5 8 -44 8 -96 0 -26 -4 -51 1 -47 9 3 4 -7 7 -23 8 -16 1 -32 -6
-39 -18z"/>
<path d="M6101 6461 c-7 -5 -9 -11 -4 -14 5 -3 15 -2 22 2 7 5 9 11 4 14 -5 3
-15 2 -22 -2z"/>
<path d="M8305 6271 c-6 -11 9 -23 19 -14 9 9 7 23 -3 23 -6 0 -12 -4 -16 -9z"/>
<path d="M4568 6152 c-3 -10 -12 -19 -21 -19 -9 0 -14 4 -11 8 9 15 -15 19
-29 4 -9 -8 -20 -15 -25 -15 -5 0 -20 -12 -33 -27 -13 -16 -32 -28 -41 -29
-63 -3 -76 -6 -94 -20 -15 -12 -15 -14 -2 -11 25 9 30 -5 7 -21 -18 -12 -23
-13 -30 -1 -8 11 -19 4 -53 -33 -25 -27 -48 -48 -53 -48 -14 0 -63 -61 -69
-87 -5 -17 -10 -21 -17 -14 -11 11 -37 -28 -37 -57 0 -8 -7 -22 -15 -31 -65
-70 -109 -149 -98 -177 5 -13 2 -15 -15 -9 -18 5 -22 2 -22 -14 0 -11 -6 -26
-12 -33 -16 -17 -18 -27 -24 -107 -4 -66 -8 -76 -27 -76 -8 0 -12 -23 -13 -65
-1 -36 -2 -69 -4 -75 -1 -5 -2 -13 -1 -17 0 -5 -4 -8 -9 -8 -6 0 -10 -7 -10
-15 0 -8 3 -15 8 -15 10 0 12 -53 1 -66 -5 -6 -11 -26 -14 -45 -2 -19 -6 -44
-9 -56 -3 -13 -1 -23 4 -23 4 0 5 -15 1 -33 -10 -43 -6 -65 16 -89 20 -22 19
-59 -3 -71 -7 -4 -11 -14 -8 -22 4 -8 11 -12 17 -8 7 4 8 -6 4 -29 -3 -24 1
-48 16 -79 23 -50 21 -45 31 -81 5 -16 11 -28 16 -28 8 0 48 -91 56 -128 1 -8
18 -28 37 -45 23 -21 37 -45 41 -69 5 -29 18 -47 53 -75 26 -21 74 -66 106
-101 40 -41 73 -66 98 -74 21 -6 36 -14 34 -18 -3 -4 4 -15 14 -24 13 -12 21
-14 26 -6 5 8 14 6 29 -8 11 -10 42 -25 69 -32 26 -7 50 -17 53 -21 3 -5 15
-9 28 -9 12 0 27 -5 32 -10 9 -9 21 -13 74 -24 8 -2 23 3 32 12 14 12 21 12
32 2 19 -15 173 -15 191 0 7 6 23 13 36 15 12 2 33 14 46 26 12 13 23 19 23
15 0 -5 7 -3 15 4 8 7 15 9 15 5 0 -3 12 3 26 14 14 11 32 17 40 14 8 -3 14 0
14 6 0 6 6 11 14 11 7 0 25 9 40 21 14 11 26 17 26 13 0 -4 -8 -13 -17 -20
-17 -12 -17 -13 -1 -14 10 0 22 8 27 18 5 10 28 27 50 37 37 16 56 45 31 45
-5 0 -10 5 -10 10 0 6 13 10 29 10 32 0 76 44 87 86 3 13 10 21 16 18 5 -3 14
8 21 25 6 17 17 31 24 31 16 0 40 37 47 72 4 25 33 86 47 98 7 7 35 70 44 100
4 14 18 51 32 84 13 32 22 64 19 72 -3 7 -1 16 3 19 5 3 7 13 4 24 -3 10 2 32
10 47 9 18 14 55 13 96 -1 54 2 70 16 83 15 12 16 19 8 35 -6 11 -15 18 -20
15 -15 -9 -21 30 -24 155 -4 119 -12 170 -27 170 -5 0 -7 11 -3 25 4 16 2 25
-6 25 -6 0 -9 4 -5 9 3 5 1 12 -5 16 -5 3 -10 17 -10 30 0 13 -5 27 -11 31 -8
5 -8 8 0 13 7 5 1 27 -19 67 -16 32 -30 66 -30 75 0 9 -9 24 -20 34 -11 10
-19 23 -18 29 2 7 -11 30 -28 53 -23 32 -33 40 -42 31 -9 -9 -12 -4 -12 20 0
18 -4 32 -10 32 -5 0 -10 5 -10 11 0 16 -48 59 -66 59 -8 0 -31 17 -52 38 -20
21 -61 53 -89 71 -29 18 -53 38 -53 45 0 6 -15 18 -32 25 -18 8 -37 21 -43 28
-5 7 -28 15 -50 18 -63 7 -73 10 -92 28 -18 15 -21 15 -51 -3 -40 -25 -48 -25
-54 -2 -6 23 -57 27 -103 8 -25 -11 -33 -11 -43 0 -20 22 -89 18 -94 -4z"/>
<path d="M6763 5870 c-5 -20 -7 -20 -24 -4 -18 16 -21 16 -57 -13 -37 -30 -92
-48 -92 -31 0 5 -10 6 -22 2 -31 -9 -34 -12 -18 -27 10 -10 11 -9 5 2 -6 10
-4 12 4 7 9 -6 9 -11 0 -22 -10 -13 -14 -12 -30 2 -17 15 -20 14 -47 -16 -16
-17 -36 -32 -45 -34 -9 -1 -31 -18 -49 -36 -18 -19 -38 -34 -44 -32 -10 2 -18
-13 -28 -48 -2 -10 -69 -70 -77 -70 -5 0 -9 -6 -9 -13 0 -7 -8 -22 -18 -33
-10 -10 -16 -27 -14 -37 3 -13 -1 -17 -13 -15 -23 4 -53 -54 -56 -108 -2 -23
-9 -50 -16 -60 -7 -10 -13 -15 -13 -11 0 5 -6 2 -14 -5 -8 -8 -11 -19 -6 -28
4 -8 6 -28 3 -45 -2 -16 -4 -40 -6 -52 -2 -17 -5 -19 -17 -10 -13 11 -13 10 0
-7 17 -22 22 -49 10 -56 -5 -3 -11 -17 -13 -30 -3 -14 -6 -29 -7 -35 -1 -5 -2
-38 -1 -72 1 -51 4 -63 20 -68 21 -6 18 -44 -5 -58 -7 -4 -10 -15 -7 -23 5
-13 7 -13 15 -2 6 9 8 6 7 -12 -3 -30 19 -100 32 -100 5 0 9 -7 9 -15 0 -8 13
-29 28 -47 15 -18 37 -52 47 -75 13 -28 31 -48 53 -59 25 -11 33 -21 29 -34
-6 -25 23 -55 83 -85 27 -14 54 -34 60 -45 6 -11 16 -20 22 -20 6 0 20 -7 29
-16 10 -9 29 -18 41 -19 37 -4 38 -4 38 -20 0 -9 9 -15 23 -14 12 0 45 -7 72
-15 197 -59 189 -57 202 -40 10 14 15 15 27 5 8 -7 27 -12 43 -12 40 2 61 1
76 -1 6 0 38 11 70 26 32 16 65 29 73 30 9 1 19 7 22 12 4 5 16 10 27 12 29 4
38 7 61 19 11 7 29 10 40 9 10 -2 28 4 38 13 11 9 16 10 12 4 -5 -9 -2 -11 8
-7 9 3 16 13 16 21 0 8 -4 11 -10 8 -5 -3 -10 -2 -10 3 0 13 28 23 32 13 6
-17 49 10 69 44 12 19 25 33 29 30 5 -3 11 4 15 15 3 11 14 20 24 20 17 0 51
47 51 72 0 7 13 27 30 45 16 17 42 58 57 90 15 32 34 69 42 82 8 13 16 41 16
62 1 22 9 47 19 58 14 16 16 24 7 34 -6 8 -8 17 -4 20 3 4 6 20 5 36 0 16 6
35 14 42 21 17 17 38 -9 48 -13 5 -24 15 -24 23 -1 7 -4 60 -7 118 -4 79 -9
108 -21 116 -9 7 -15 16 -14 20 2 9 -13 49 -32 87 -6 11 -5 17 1 17 11 0 -5
33 -32 64 -10 11 -21 29 -24 40 -4 12 -15 27 -26 34 -10 7 -16 17 -13 21 7 13
-46 62 -64 59 -10 -2 -15 3 -13 15 2 10 -3 17 -13 17 -9 0 -13 5 -10 11 9 13
-23 38 -49 39 -11 0 -33 11 -51 24 -17 13 -52 34 -78 46 -26 12 -47 26 -47 31
0 5 -7 9 -15 9 -8 0 -15 5 -15 11 0 6 -7 9 -15 5 -9 -3 -15 0 -15 9 0 16 -12
18 -67 15 -19 -1 -40 5 -49 14 -20 21 -30 20 -54 -4 -23 -23 -40 -19 -40 10 0
18 -20 17 -86 -4 -13 -4 -27 -1 -35 6 -24 23 -60 22 -66 -2z"/>
<path d="M2420 5807 c0 -10 -3 -16 -7 -15 -15 3 -43 -14 -37 -23 3 -5 2 -9 -3
-10 -4 0 -18 -2 -31 -3 -13 -2 -25 1 -27 5 -7 10 -45 -1 -45 -13 0 -5 5 -6 10
-3 6 3 10 -1 10 -9 0 -22 -17 -29 -28 -10 -8 14 -14 12 -45 -16 -20 -17 -41
-29 -47 -25 -5 3 -10 -1 -10 -9 0 -8 -9 -17 -20 -21 -11 -3 -19 -9 -19 -13 3
-21 -3 -31 -15 -26 -9 3 -17 -3 -21 -18 -4 -13 -25 -40 -47 -60 -22 -20 -46
-54 -54 -75 -7 -21 -13 -32 -14 -24 0 11 -6 8 -21 -7 -21 -24 -28 -45 -33
-102 -5 -50 -5 -50 -20 -44 -19 7 -27 -19 -16 -55 5 -19 5 -33 -1 -37 -5 -3
-7 -23 -5 -45 3 -21 1 -39 -4 -39 -12 0 -24 -56 -24 -118 -1 -41 3 -53 17 -58
21 -7 22 -28 1 -48 -15 -15 -11 -41 5 -32 4 3 5 -9 3 -25 -3 -22 2 -37 19 -55
12 -13 19 -24 15 -24 -4 0 6 -17 22 -37 34 -45 57 -85 54 -96 -1 -4 14 -15 33
-23 20 -8 33 -19 30 -24 -12 -20 20 -59 66 -80 27 -13 49 -27 49 -31 0 -12 61
-52 84 -55 12 -1 25 -3 29 -3 5 -1 6 -5 2 -10 -3 -6 4 -15 15 -21 14 -8 20 -8
20 0 0 7 7 7 21 -1 12 -6 36 -13 53 -16 17 -3 34 -10 37 -15 4 -6 12 -7 19 -3
7 4 15 3 19 -3 11 -18 67 -24 80 -8 10 12 16 12 38 1 17 -9 33 -11 49 -4 15 5
24 5 24 -1 0 -12 37 -4 66 15 13 8 24 12 24 8 0 -5 4 -2 9 6 5 8 20 16 32 18
13 2 26 8 30 15 4 6 11 8 17 4 6 -3 13 -2 17 4 4 6 11 8 16 4 5 -3 17 0 25 7
8 6 17 9 21 5 3 -3 1 -6 -6 -6 -7 0 -9 -5 -5 -12 5 -8 10 -7 18 4 6 8 24 19
40 25 17 5 32 16 35 24 4 12 2 12 -13 0 -14 -12 -16 -12 -10 2 7 20 27 27 44
17 9 -5 20 0 32 15 10 13 18 26 18 29 0 6 43 50 53 54 4 1 11 2 16 2 5 0 15
17 21 38 7 20 22 48 35 62 12 14 32 44 44 68 11 23 29 59 40 80 10 20 17 46
15 57 -1 11 3 26 10 35 8 9 12 37 11 68 -1 37 3 52 12 52 15 0 18 39 3 41 -5
1 -15 2 -22 3 -7 0 -13 18 -15 41 -1 22 -4 59 -7 82 -2 24 0 45 5 48 8 6 -8
44 -24 56 -4 3 -7 10 -6 15 1 5 -6 26 -15 48 -10 21 -15 44 -12 51 2 7 -6 23
-20 36 -13 12 -24 28 -24 36 0 7 -9 21 -19 30 -11 9 -17 23 -13 31 3 10 1 13
-6 8 -7 -4 -12 -2 -12 6 0 7 -9 19 -20 26 -12 7 -20 8 -20 2 0 -5 -4 -10 -9
-10 -5 0 -8 8 -7 17 4 22 -42 73 -60 66 -7 -3 -30 9 -51 26 -21 17 -44 31 -53
31 -17 1 -59 30 -44 31 5 0 -2 5 -16 11 -14 6 -28 10 -32 10 -5 -1 -8 5 -8 13
0 12 -10 15 -46 14 -28 -2 -48 2 -53 10 -8 12 -63 6 -58 -8 1 -3 -2 -6 -8 -6
-5 0 -9 6 -9 13 2 14 -54 16 -75 3 -10 -6 -25 -4 -42 5 -37 19 -60 18 -53 -1
8 -20 -5 -19 -28 2 -17 15 -18 15 -18 0z"/>
<path d="M7256 4250 c-15 -5 -16 -9 -7 -14 7 -5 18 -3 24 3 14 14 6 20 -17 11z"/>
<path d="M6184 3865 c-4 -8 -10 -15 -16 -15 -5 0 -6 5 -3 10 13 21 -27 9 -52
-16 -22 -22 -31 -24 -64 -19 -39 7 -58 -9 -21 -18 16 -4 16 -4 -2 -12 -11 -5
-21 -3 -25 4 -6 9 -15 5 -32 -13 -13 -14 -32 -26 -42 -26 -10 0 -15 -4 -12
-10 3 -5 0 -10 -8 -10 -8 0 -17 -9 -20 -21 -3 -12 -10 -18 -16 -15 -5 4 -12
-2 -16 -13 -3 -11 -28 -42 -56 -71 -27 -28 -47 -55 -44 -61 4 -5 0 -9 -8 -9
-20 0 -45 -58 -42 -98 1 -23 -3 -36 -14 -40 -24 -9 -30 -22 -21 -52 6 -20 4
-32 -8 -44 -9 -9 -11 -16 -6 -16 14 0 12 -29 -4 -57 -7 -13 -9 -23 -5 -23 4 0
2 -5 -3 -10 -16 -16 -5 -102 15 -116 14 -11 14 -14 -2 -31 -21 -24 -22 -33 -2
-33 12 0 13 -4 6 -19 -8 -14 -6 -25 9 -44 11 -14 20 -29 20 -35 0 -5 9 -17 21
-28 12 -10 27 -35 35 -54 8 -19 28 -43 44 -52 20 -11 28 -23 25 -37 -4 -20 20
-42 61 -55 12 -4 38 -22 59 -41 21 -21 47 -35 61 -35 14 0 23 -4 19 -9 -9 -15
14 -24 29 -12 10 9 15 8 20 -4 3 -9 18 -15 35 -15 16 0 33 -5 36 -11 4 -6 13
-8 20 -5 7 2 17 0 22 -5 19 -19 61 -20 72 -2 9 14 12 15 19 5 11 -17 90 -22
117 -8 11 6 31 19 44 28 13 10 27 16 31 13 4 -3 13 2 20 10 7 8 16 13 20 10 5
-3 20 -1 34 4 20 8 24 7 19 -4 -3 -8 0 -15 6 -15 6 0 11 8 11 18 0 14 7 18 31
16 28 -2 31 0 26 23 -4 21 -1 24 16 19 21 -5 57 18 57 36 0 11 38 48 49 48 13
0 30 24 34 48 2 12 12 32 24 44 36 41 88 149 84 180 -1 18 3 30 13 34 17 6 22
34 7 34 -12 0 -1 52 16 72 16 18 10 38 -13 38 -16 0 -16 -2 -20 103 -2 62 -7
82 -21 93 -12 9 -13 13 -5 14 10 0 10 4 -2 16 -9 8 -16 21 -17 27 -3 45 -7 61
-17 65 -6 2 -16 19 -22 38 -7 19 -18 34 -27 34 -9 0 -13 6 -9 15 7 18 -38 50
-55 39 -7 -4 -10 -3 -7 2 13 21 -12 53 -50 63 -21 6 -47 20 -57 31 -10 11 -26
20 -35 20 -9 0 -26 11 -38 25 -13 15 -28 22 -37 19 -10 -4 -15 -2 -13 7 2 10
-9 15 -37 17 -22 2 -44 8 -49 13 -15 14 -23 11 -46 -13 l-20 -22 0 22 c0 16
-6 22 -22 22 -13 0 -29 -4 -37 -9 -10 -6 -25 -4 -42 5 -35 18 -38 18 -45 -1z"/>
<path d="M3483 3799 c-5 -19 -33 -27 -33 -9 0 16 -27 12 -34 -5 -3 -8 -9 -14
-13 -14 -15 4 -43 -13 -38 -22 6 -9 -26 -19 -76 -23 -54 -5 -56 -5 -56 -21 0
-10 4 -12 12 -5 7 5 15 7 18 3 7 -6 -21 -32 -35 -33 -3 0 -8 8 -10 18 -4 14
-12 9 -46 -25 -23 -24 -46 -43 -52 -43 -17 0 -70 -56 -70 -74 0 -19 -17 -30
-23 -14 -3 7 -12 -5 -22 -27 -9 -21 -26 -48 -36 -60 -72 -77 -94 -115 -90
-150 2 -15 0 -17 -11 -7 -12 9 -18 5 -32 -26 -21 -43 -24 -58 -27 -117 -2 -33
-9 -50 -31 -70 -18 -17 -25 -32 -20 -39 13 -18 15 -76 2 -76 -8 0 -10 -9 -6
-26 4 -15 3 -23 -3 -20 -5 3 -4 -8 2 -24 9 -23 9 -33 0 -38 -15 -10 -24 -65
-23 -146 1 -57 5 -72 22 -86 20 -16 20 -18 5 -50 -13 -25 -14 -36 -6 -46 6 -8
9 -22 7 -32 -3 -9 12 -49 33 -87 21 -39 54 -101 73 -140 23 -46 45 -76 65 -88
20 -11 29 -24 26 -36 -5 -26 45 -83 94 -106 22 -11 41 -24 41 -28 0 -7 35 -42
75 -75 9 -8 28 -16 42 -18 15 -3 33 -14 41 -25 13 -19 49 -28 37 -9 -4 6 11
-1 32 -15 20 -15 45 -24 55 -22 9 3 25 0 35 -7 54 -35 160 -55 169 -32 5 13 9
13 27 1 15 -9 45 -13 95 -11 71 3 109 17 235 83 15 8 27 11 27 7 0 -3 6 -2 13
4 6 5 26 8 44 6 24 -3 36 2 48 19 8 12 18 20 21 18 8 -5 64 21 64 30 0 13 -14
11 -30 -3 -12 -11 -12 -10 -2 3 6 9 9 19 6 22 -7 7 37 20 53 15 14 -4 52 40
59 69 4 12 10 20 15 17 5 -3 14 6 21 20 6 14 19 26 27 26 18 0 45 40 55 82 3
14 16 39 29 55 21 27 65 102 66 113 0 12 14 47 29 75 9 17 17 52 18 79 2 27 8
52 15 56 6 5 11 21 11 36 -3 97 -1 112 14 118 8 3 14 14 14 24 0 22 -23 46
-33 35 -8 -7 -9 -1 -13 72 -1 28 -4 52 -5 55 -1 3 -2 38 -3 78 -1 60 -4 75
-19 84 -14 7 -15 13 -7 23 8 10 8 15 -3 22 -14 8 -23 38 -33 103 -2 19 -11 40
-19 46 -7 5 -22 30 -31 55 -10 24 -26 50 -36 57 -10 7 -16 18 -13 23 4 5 -5
20 -19 34 -15 14 -26 31 -26 38 0 7 -7 3 -15 -7 -15 -20 -20 -12 -16 22 1 8
-6 20 -16 28 -10 7 -13 14 -8 14 15 0 -48 40 -63 40 -7 0 -30 16 -50 35 -20
20 -50 39 -65 42 -16 3 -31 12 -34 19 -3 8 -12 14 -20 14 -8 0 -12 4 -9 9 6 9
-22 26 -36 23 -5 -1 -8 2 -8 8 0 5 -7 6 -17 3 -11 -4 -14 -3 -9 5 9 16 -26 29
-73 28 -21 -1 -44 6 -55 16 -13 12 -24 14 -36 8 -10 -5 -20 -6 -24 -3 -3 3 -6
-1 -6 -11 0 -11 -6 -16 -17 -14 -11 2 -17 11 -15 21 3 16 -3 17 -49 13 -28 -2
-56 -10 -60 -18 -7 -11 -10 -11 -18 0 -4 7 -25 17 -46 22 -32 7 -38 6 -42 -11z
m567 -1878 c0 -5 -7 -12 -16 -15 -14 -5 -15 -4 -4 9 14 17 20 19 20 6z"/>
<path d="M5108 2099 c-5 -3 -9 -10 -8 -15 0 -5 -6 -11 -16 -12 -9 -2 -14 1
-10 6 10 16 -16 20 -33 5 -9 -7 -29 -25 -45 -38 -16 -14 -37 -25 -47 -26 -11
-1 -29 -2 -41 -2 -36 -2 -61 -37 -27 -37 6 0 7 5 3 12 -5 7 -3 8 5 3 10 -6 9
-11 -3 -23 -12 -12 -18 -13 -30 -3 -13 11 -20 7 -46 -20 -16 -19 -30 -37 -30
-41 0 -5 -9 -8 -19 -8 -11 0 -22 -9 -26 -19 -3 -11 -12 -22 -20 -25 -8 -3 -15
-15 -15 -26 0 -13 -7 -20 -19 -20 -16 0 -26 -17 -35 -60 -4 -16 -64 -88 -70
-83 -3 3 -6 1 -6 -5 0 -6 -5 -23 -12 -39 -6 -15 -10 -35 -9 -45 1 -9 -3 -19
-9 -23 -5 -3 -10 -1 -10 5 0 6 -4 8 -10 5 -5 -3 -10 -15 -10 -25 0 -10 -5 -20
-10 -22 -6 -2 -12 -29 -14 -60 -2 -31 -7 -61 -10 -67 -4 -6 -3 -11 3 -11 6 0
8 -7 5 -15 -4 -8 -14 -15 -24 -15 -14 0 -17 -8 -16 -37 0 -21 4 -43 8 -49 4
-6 1 -20 -6 -30 -10 -12 -11 -24 -5 -36 6 -10 5 -19 -1 -23 -6 -4 -7 -12 -1
-23 6 -11 4 -24 -7 -40 -10 -16 -16 -52 -18 -110 -1 -72 1 -89 16 -102 20 -18
18 -44 -6 -71 -16 -18 -16 -19 0 -19 13 0 16 -7 13 -32 -4 -36 10 -88 24 -88
5 0 9 -7 9 -15 0 -9 15 -44 34 -78 18 -34 34 -66 36 -72 8 -32 21 -52 43 -72
15 -12 28 -37 31 -60 6 -32 16 -45 66 -81 33 -24 62 -52 65 -63 4 -10 9 -19
13 -19 4 0 21 -14 39 -30 18 -17 41 -30 52 -30 12 0 21 -6 21 -13 0 -16 38
-40 50 -32 6 4 17 -1 26 -9 8 -9 34 -21 57 -27 23 -6 47 -14 52 -19 15 -11 76
-31 112 -36 23 -3 35 1 41 13 9 15 11 16 27 0 13 -13 30 -16 84 -13 69 4 161
37 161 57 0 6 4 8 9 4 5 -3 12 -1 16 5 4 6 10 8 15 5 4 -3 13 2 20 10 7 8 21
15 31 15 10 0 21 5 25 11 3 6 19 9 34 7 21 -3 33 2 45 19 10 13 21 23 26 23 4
0 20 5 36 11 27 10 27 11 9 25 -23 17 -16 26 19 27 28 0 61 35 71 74 4 12 10
21 14 18 4 -3 13 9 20 25 7 16 16 28 20 25 11 -7 38 27 43 55 8 37 18 62 41
95 11 16 22 34 23 40 6 27 53 148 61 158 6 7 10 30 10 52 0 22 7 57 16 77 9
20 12 39 7 42 -13 8 -1 89 15 102 17 13 7 57 -12 50 -22 -8 -25 7 -28 145 -3
111 -6 133 -20 141 -13 7 -14 13 -6 23 8 10 7 16 -5 23 -9 5 -16 11 -15 13 1
2 -2 29 -6 59 -5 30 -7 62 -5 70 2 8 0 12 -5 8 -9 -10 -33 22 -34 45 0 11 -10
33 -22 50 -13 18 -22 38 -20 44 2 7 -3 13 -9 13 -7 0 -9 3 -6 7 11 10 -33 52
-49 46 -9 -3 -12 2 -9 17 2 12 -2 23 -10 27 -8 3 -12 9 -9 15 7 11 -36 50 -50
45 -6 -2 -29 15 -51 38 -36 37 -70 60 -85 57 -3 0 -14 12 -25 28 -10 15 -33
33 -51 41 -18 7 -31 16 -28 20 7 12 -12 20 -58 23 -24 1 -56 11 -71 21 -24 16
-30 16 -38 4 -5 -8 -9 -10 -9 -5 0 5 -9 1 -19 -8 -19 -17 -39 -7 -26 14 3 6 0
11 -7 11 -7 1 -20 2 -28 3 -8 1 -31 -4 -50 -9 -37 -12 -70 -9 -70 5 0 9 -46 8
-62 -1z m562 -1923 c0 -3 -4 -8 -10 -11 -5 -3 -10 -1 -10 4 0 6 5 11 10 11 6
0 10 -2 10 -4z"/>
</g>
</svg>
